<?xml version="1.0" encoding="UTF-8"?>
<svg id="Layer_2" data-name="Layer 2" xmlns="http://www.w3.org/2000/svg" viewBox="0 0 262.25 262.33">
  <defs>
    <style>
      .cls-1 {
        fill: #ef4043;
      }

      .cls-1, .cls-2, .cls-3 {
        stroke-width: 0px;
      }

      .cls-2 {
        fill: #fff;
      }

      .cls-3 {
        fill: #013042;
      }
    </style>
  </defs>
  <g id="Layer_1-2" data-name="Layer 1">
    <g>
      <path class="cls-2" d="M3.96,258.63l252.87-5.46,5.42-163.79-43.08-27.42-2.21-33.84-51.03-.05s-24.84-22.56-35.3-22.47c-9.53.08-31.78,21.02-31.78,21.02l-53.46.48-2.35,36.44L3.96,89.38v169.25Z"/>
      <g>
        <path class="cls-3" d="M262.25,85.53v166.46c-2.79,7.91-8.53,10.41-16.67,10.34-30.89-.27-61.78-.11-92.68-.11-46.42,0-92.85,0-139.27,0-7.84,0-13.59-5.41-13.6-12.9C.01,195.47.03,141.62,0,87.77c0-2.01.79-3.3,2.41-4.43,11.72-8.23,23.38-16.57,35.12-24.77,1.47-1.03,1.88-2.14,1.86-3.81-.07-7.42.2-14.86-.1-22.27-.28-6.91,4.22-10.86,10.64-10.74,12.28.22,24.58.12,36.86,0,1.57-.02,3.37-.61,4.67-1.5,6.61-4.54,13.11-9.23,19.6-13.93,4.65-3.37,9.99-4.98,15.46-6.31,3.07,0,6.15,0,9.22,0,.38.16.76.4,1.16.46,5.32.82,10.13,2.89,14.5,6,6.32,4.5,12.57,9.11,18.99,13.46,1.57,1.06,3.7,1.79,5.59,1.81,12.12.16,24.24.07,36.36.09,7.28,0,10.56,3.34,10.57,10.67,0,7.42.04,14.85-.03,22.27-.02,1.68.41,2.78,1.87,3.81,11.32,7.92,22.57,15.93,33.83,23.94,1.29.92,2.45,2.01,3.68,3.03ZM48.23,30.77c-.05.63-.1,1.04-.1,1.45,0,28.07,0,56.14.07,84.22,0,.91.65,2.09,1.38,2.7,21.41,17.87,42.86,35.7,64.32,53.51,10.4,8.63,23.77,8.7,34.24.23,2.65-2.14,5.26-4.34,7.88-6.52,18.76-15.6,37.5-31.21,56.31-46.76,1.42-1.17,1.85-2.35,1.85-4.11-.05-27.3-.03-54.61-.03-81.91,0-.9,0-1.81,0-2.81H48.23ZM155.46,178.5c-.45.29-.75.44-1,.65-13.43,11.65-32.88,11.73-46.16.31-1.47-1.26-2.21-.37-3.21.46-28.87,24-57.74,47.99-86.61,71.99-.46.38-.84.87-1.41,1.46h228.49c-30.33-25.2-60.21-50.03-90.11-74.87ZM100.05,172.65c-30.48-25.33-60.68-50.43-91.11-75.71v151.41c30.49-25.33,60.66-50.4,91.11-75.7ZM162.23,172.65c30.47,25.32,60.67,50.4,91.07,75.65V96.97c-30.47,25.32-60.63,50.39-91.07,75.68ZM223.03,110.63c9.4-7.82,18.4-15.29,27.61-22.95-9.28-6.58-18.28-12.95-27.61-19.57v42.52ZM39.24,68.13c-9.42,6.68-18.43,13.06-27.6,19.56,9.24,7.67,18.25,15.15,27.6,22.91v-42.48ZM156.64,21.68c.06-.17.11-.34.17-.51-4.24-2.97-8.4-6.08-12.77-8.86-1.9-1.21-4.15-1.98-6.34-2.59-13.5-3.77-22.67,4.37-32.58,11.96h51.52Z"/>
        <path class="cls-1" d="M146.7,77.71c.31-1.42.5-2.41.74-3.39.71-2.97,2.8-4.55,5.25-3.98,2.53.59,3.94,2.85,3.4,5.72-1.19,6.27-2.39,12.54-3.72,18.79-1.25,5.91-2.67,11.77-4.01,17.66-.56,2.47.44,4,2.94,4.27,4.92.54,9.13-.93,12.31-4.8,8.29-10.07,9.76-21.47,5.34-33.39-4.42-11.92-13.22-19.28-25.94-21.28-24.79-3.91-50.18,13.32-55.67,37.59-3.96,17.5,6.76,35.79,24.03,40.97,13.61,4.09,27.37,5.44,41.34,1.98,8.93-2.21,16.59-6.53,22.59-13.63,1.93-2.29,4.02-2.76,6.07-1.5,1.93,1.18,2.56,2.99,1.91,5.07-.31,1.01-1.08,1.92-1.79,2.74-8.01,9.16-18.23,14.38-30.06,16.61-15.79,2.97-31.39,1.71-46.25-4.16-24.73-9.77-34.74-38.61-21.74-62.48,9.52-17.48,23.95-28.99,44.01-32.07,22.84-3.51,42.21,6.69,49.77,27.04,5.49,14.78,3.65,28.87-6.26,41.46-5.31,6.74-12.33,9.71-20.95,8.56-4.37-.58-7.13-2.52-9.94-7.09-3.92,3.53-8.39,6.08-13.6,7-14.63,2.6-25.66-6.59-25.13-21.47.51-14.2,7.28-25.03,19.68-31.99,7.74-4.34,17.72-2.46,24,3.97.47.48.92.97,1.67,1.78ZM110.1,102.07c-.06,12.31,7.34,17.51,17.31,13.97,5.79-2.06,9.85-6.43,12.63-11.44,4.38-7.91,5.73-14.28-.56-21.56-.06-.06-.1-.14-.15-.2-3.46-4.24-9.48-5.67-14.3-3.01-9.42,5.2-13.82,13.64-14.93,22.25Z"/>
      </g>
    </g>
  </g>
</svg>