<?xml version="1.0" encoding="UTF-8"?>
<svg id="Layer_2" data-name="Layer 2" xmlns="http://www.w3.org/2000/svg" viewBox="0 0 510.2 511.05">
  <defs>
    <style>
      .cls-1 {
        fill: #013042;
        stroke-width: 0px;
      }
    </style>
  </defs>
  <g id="Layer_1-2" data-name="Layer 1">
    <path class="cls-1" d="M510.2,267c-1.69,3.74-3.05,7.69-5.14,11.2-8.91,14.95-21.98,23.19-39.53,23.83-2.8.1-5.6.01-9.13.01,0,2.39,0,4.32,0,6.24-.04,50.15.16,100.3-.21,150.45-.2,27.58-24.83,51.87-52.37,52.15-27.93.28-55.87.12-83.81.06-9.25-.02-15.3-6.65-15.31-16.59-.03-38.49-.44-76.98.2-115.46.25-15.17-9.67-29.23-28.37-28.58-14.12.49-28.27.41-42.4.02-18.33-.5-27.87,13.82-27.66,27.73.57,38.31.2,76.64.19,114.96,0,12.25-5.73,17.94-18.01,17.94-25.61,0-51.22.02-76.83,0-33.15-.02-56.76-23.5-56.86-56.92-.15-48.48-.04-96.97-.04-145.46,0-1.96,0-3.92,0-5.95-6.09-.55-11.77-.52-17.2-1.65-17.76-3.69-29.78-14.51-35.26-31.68-5.49-17.17-1.76-32.86,10.28-46.41,1.44-1.62,3-3.12,4.53-4.65C82.77,152.64,148.31,87.06,213.71,21.35c8.84-8.89,17.67-17.52,30.01-21.35h23.95c11.76,3.78,20.47,11.76,28.99,20.33,63.61,63.95,127.34,127.79,191.14,191.55,9.2,9.2,18.38,18.25,22.39,31.12v24ZM176.52,480.94c0-2.71,0-4.84,0-6.98.1-34.32-.27-68.65.45-102.96.52-24.53,21.61-47.71,45.91-49.67,20.32-1.64,40.94-2.1,61.25-.62,30.49,2.21,50.5,25.67,50.64,56.85.14,32.49.03,64.98.03,97.48,0,1.91,0,3.82,0,5.98,21.62,0,42.4,0,63.18,0,18.31,0,28.43-10.11,28.43-28.36,0-54.32,0-108.64,0-162.96,0-11.92,5.77-17.63,17.8-17.64,6.65,0,13.31.09,19.96-.03,8.22-.15,14.48-5.33,16.46-13.35,2.06-8.35-2.51-13.84-7.88-19.21-67.42-67.47-134.79-135-202.17-202.51-10.64-10.66-19.14-10.64-29.83.07-57.03,57.14-114.07,114.29-171.1,171.43-11.41,11.43-22.87,22.8-34.2,34.3-5.27,5.35-6.89,11.77-3.86,18.8,2.99,6.94,8.56,10.4,16.11,10.48,6.32.07,12.64.01,18.96.02,12.65,0,18.3,5.61,18.3,18.18,0,54.99-.02,109.97.02,164.96.01,13.92,9.68,25.2,23.44,25.58,22.42.62,44.87.17,68.09.17Z"/>
  </g>
</svg>