<?xml version="1.0" encoding="UTF-8"?>
<svg id="Layer_2" data-name="Layer 2" xmlns="http://www.w3.org/2000/svg" viewBox="0 0 194.78 262.33">
  <defs>
    <style>
      .cls-1 {
        fill: #ef4043;
      }

      .cls-1, .cls-2, .cls-3 {
        stroke-width: 0px;
      }

      .cls-2 {
        fill: #fff;
      }

      .cls-3 {
        fill: #013042;
      }
    </style>
  </defs>
  <g id="Layer_1-2" data-name="Layer 1">
    <g>
      <path class="cls-2" d="M189.07,97.8c0-50.65-41.06-91.7-91.7-91.7S5.66,47.15,5.66,97.8s91.7,155.57,91.7,155.57c0,0,91.7-104.92,91.7-155.57Z"/>
      <g>
        <path class="cls-3" d="M19.04,262.33c-.43-.28-.86-.54-1.28-.83-2.06-1.45-2.81-3.48-2.07-5.82.78-2.46,2.64-3.6,5.28-3.6,18.68.02,37.37.01,56.05.01,3.29,0,6.59,0,10.35,0-1.25-1.82-2.23-3.28-3.24-4.71-22.22-31.47-44.54-62.88-66.64-94.43C3.97,133.66-2.08,112.05.64,88.65,5.54,46.51,28.55,17.94,68.63,4.7c51.56-17.03,107.83,13.84,122.27,66.19,8.29,30.03,3.25,58.03-14.69,83.6-5.09,7.26-10.2,14.5-15.37,21.71-2.4,3.34-6.37,3.52-8.6.48-1.66-2.26-1.22-4.44.31-6.6,5.33-7.5,10.66-15.01,15.94-22.55,11.13-15.88,16.42-33.56,15.8-52.9-1.29-40.43-30.78-74.96-70.31-82.55C66.89,3.03,21.31,33.55,12.05,80.72c-4.72,24.05-.02,46.47,14.08,66.61,23.03,32.89,46.29,65.62,69.46,98.41.52.74,1.09,1.46,1.82,2.42,3.98-5.61,7.81-11.02,11.63-16.42,5.31-7.52,10.63-15.03,15.91-22.57,1.42-2.03,3.13-3.46,5.74-2.98,3.89.72,5.45,4.91,3.05,8.39-4.7,6.8-9.52,13.53-14.28,20.28-3.49,4.95-6.97,9.89-10.45,14.85-.47.67-.9,1.36-1.58,2.4h3.11c20.99,0,41.97,0,62.96,0,4.06,0,6.85,3.18,5.5,6.56-.58,1.43-2.17,2.46-3.31,3.66H19.04Z"/>
        <path class="cls-1" d="M97.34,51.42c25.57,0,46.11,20.56,46.09,46.16-.01,25.41-20.6,45.96-46.03,45.97-25.57,0-46.11-20.57-46.09-46.16.01-25.41,20.59-45.96,46.03-45.96ZM97.45,61.65c-19.62-.05-35.87,16.13-35.92,35.75-.05,19.62,16.13,35.88,35.75,35.93,19.62.05,35.88-16.14,35.93-35.76.05-19.62-16.13-35.87-35.76-35.92Z"/>
        <path class="cls-1" d="M148.54,192.75c-.02,2.9-2.3,5.11-5.21,5.07-2.89-.05-5.08-2.36-5-5.27.07-2.79,2.27-4.92,5.08-4.94,2.91-.01,5.15,2.24,5.13,5.14Z"/>
      </g>
    </g>
  </g>
</svg>