<svg width="34" height="34" viewBox="0 0 34 34" fill="none" xmlns="http://www.w3.org/2000/svg">
<path d="M25.499 1.76953C26.0857 1.76953 26.5613 2.24538 26.5615 2.83203V3.73242C27.7015 4.05556 28.6636 4.58012 29.4639 5.44531C30.545 6.6142 31.0366 8.08535 31.2764 9.92187C31.5131 11.7355 31.5192 14.052 31.5195 16.999C31.5195 17.5858 31.0438 18.0615 30.457 18.0615C29.8704 18.0614 29.3946 17.5857 29.3945 16.999C29.3943 15.1796 29.39 13.6691 29.3389 12.3945L4.65918 12.3945C4.6048 13.7502 4.60352 15.371 4.60352 17.3437V18.0713C4.60352 21.1854 4.60476 23.422 4.81641 25.124C5.02526 26.8034 5.42293 27.8001 6.09473 28.5264C6.75563 29.2408 7.64564 29.6547 9.16113 29.875C10.7162 30.101 12.7663 30.1035 15.6533 30.1035C16.2401 30.1036 16.7158 30.5793 16.7158 31.166C16.7156 31.7526 16.24 32.2284 15.6533 32.2285H15.5674C12.7857 32.2285 10.5809 32.2283 8.85547 31.9775C7.07256 31.7184 5.64711 31.1729 4.53418 29.9697C3.43225 28.7784 2.94262 27.2729 2.70801 25.3867C2.47813 23.5383 2.4785 21.169 2.47852 18.1465V17.2686C2.4785 14.246 2.47813 11.8768 2.70801 10.0283C2.94259 8.14203 3.4323 6.63667 4.53418 5.44531C5.33449 4.58012 6.29654 4.05556 7.43652 3.73242V2.83203C7.4367 2.24538 7.91233 1.76953 8.49902 1.76953C9.08572 1.76953 9.56135 2.24538 9.56152 2.83203V3.35059C11.1709 3.18636 13.1517 3.1865 15.5674 3.18652H18.4307C20.8464 3.1865 22.8271 3.18636 24.4365 3.35059V2.83203C24.4367 2.24538 24.9123 1.76953 25.499 1.76953ZM23.4014 19.6514C24.5937 18.7672 26.553 18.2596 28.6826 19.5498C30.2321 20.4887 31.0402 22.4049 30.7549 24.5059C30.4671 26.6248 29.0927 28.9264 26.335 30.9424C26.2973 30.9699 26.2598 30.9972 26.2227 31.0244C25.3361 31.6741 24.58 32.2285 23.374 32.2285C22.1683 32.2284 21.4128 31.674 20.5264 31.0244C20.4892 30.9972 20.4517 30.9699 20.4141 30.9424C17.6563 28.9264 16.2819 26.6248 15.9941 24.5059C15.7088 22.4049 16.5168 20.4887 18.0664 19.5498C20.1961 18.2596 22.1554 18.7672 23.3477 19.6514C23.3565 19.6579 23.3655 19.6646 23.374 19.6709C23.3827 19.6645 23.3924 19.658 23.4014 19.6514ZM27.5811 21.3672C26.2919 20.5863 25.2674 20.9131 24.667 21.3584L24.6436 21.376C24.4803 21.4971 24.3183 21.617 24.1836 21.7041C24.1112 21.7509 24.0143 21.8093 23.9043 21.8584C23.8019 21.9041 23.6129 21.9766 23.374 21.9766C23.1354 21.9765 22.9471 21.9041 22.8447 21.8584C22.7347 21.8093 22.6378 21.7509 22.5654 21.7041C22.4308 21.617 22.2687 21.4971 22.1055 21.376C22.0977 21.3702 22.0898 21.3642 22.082 21.3584C21.4816 20.9131 20.4571 20.5863 19.168 21.3672C18.474 21.7876 17.9059 22.7931 18.0996 24.2197C18.2909 25.6284 19.2507 27.4605 21.668 29.2275C22.7027 29.9839 22.9208 30.1034 23.374 30.1035C23.8275 30.1035 24.046 29.9842 25.0811 29.2275C27.4983 27.4605 28.4581 25.6284 28.6494 24.2197C28.8431 22.7931 28.275 21.7876 27.5811 21.3672ZM15.6533 5.31152C13.0074 5.31152 11.0646 5.31592 9.56152 5.49023V5.66602C9.56135 6.25267 9.08572 6.72852 8.49902 6.72852C8.0133 6.72851 7.60424 6.40211 7.47754 5.95703C6.90044 6.18658 6.46216 6.49057 6.09473 6.88769C5.42574 7.61092 5.02889 8.60281 4.81934 10.2695L29.1768 10.2695C29.1737 10.2454 29.1721 10.2212 29.1689 10.1973C28.9571 8.57417 28.5625 7.60037 27.9033 6.88769C27.5357 6.49037 27.097 6.18662 26.5195 5.95703C26.3927 6.40198 25.9846 6.72852 25.499 6.72852C24.9123 6.72851 24.4367 6.25267 24.4365 5.66602V5.49023C22.9334 5.31592 20.9907 5.31152 18.3447 5.31152L15.6533 5.31152Z" fill="#00276C"/>
<path d="M14.5 18.5H32V33H18L14.5 18.5Z" fill="#F2F2F7"/>
<path fill-rule="evenodd" clip-rule="evenodd" d="M19.129 19.7801C21.2589 18.4898 23.2183 18.9977 24.4105 19.882C24.4195 19.8887 24.4283 19.8952 24.437 19.9016C24.4456 19.8952 24.4544 19.8887 24.4634 19.882C25.6557 18.9977 27.615 18.4898 29.7449 19.7801C31.2945 20.719 32.1026 22.6351 31.8173 24.7361C31.5295 26.8552 30.1554 29.1571 27.3975 31.1732C27.3599 31.2007 27.3226 31.228 27.2855 31.2552C26.3988 31.9049 25.643 32.4588 24.437 32.4588C23.231 32.4588 22.4751 31.9049 21.5885 31.2552C21.5513 31.228 21.514 31.2007 21.4764 31.1732C18.7185 29.1571 17.3444 26.8552 17.0566 24.7361C16.7713 22.6351 17.5794 20.719 19.129 19.7801ZM23.1446 21.5888C22.5442 21.1434 21.5193 20.8166 20.2301 21.5976C19.5362 22.018 18.9686 23.0236 19.1623 24.4502C19.3536 25.8589 20.3132 27.6906 22.7304 29.4577C23.7656 30.2144 23.9834 30.3338 24.437 30.3338C24.8905 30.3338 25.1083 30.2144 26.1435 29.4577C28.5607 27.6906 29.5203 25.8589 29.7116 24.4502C29.9053 23.0236 29.3377 22.018 28.6438 21.5976C27.3546 20.8166 26.3298 21.1434 25.7293 21.5888L25.7059 21.6061C25.5427 21.7272 25.381 21.8472 25.2463 21.9343C25.1739 21.9811 25.0771 22.0398 24.9669 22.089C24.8646 22.1347 24.6759 22.2068 24.437 22.2068C24.198 22.2068 24.0093 22.1347 23.907 22.089C23.7968 22.0398 23.7 21.9811 23.6276 21.9343C23.4929 21.8472 23.3313 21.7272 23.168 21.6061C23.1602 21.6003 23.1524 21.5945 23.1446 21.5888Z" fill="#F54C67"/>
</svg>
