<svg width="34" height="34" viewBox="0 0 34 34" fill="none" xmlns="http://www.w3.org/2000/svg">
<path d="M16.999 1.76953C25.4099 1.76953 32.2285 8.58819 32.2285 16.999C32.2285 18.0407 32.1237 19.0593 31.9238 20.0439C31.807 20.6189 31.2459 20.9907 30.6709 20.874C30.0959 20.7573 29.7242 20.1961 29.8408 19.6211C30.0126 18.7748 30.1035 17.898 30.1035 16.999C30.1035 9.76179 24.2363 3.89453 16.999 3.89453C9.76179 3.89453 3.89453 9.76179 3.89453 16.999C3.89453 24.2363 9.76179 30.1035 16.999 30.1035C17.4537 30.1035 17.9026 30.0802 18.3447 30.0352C18.9285 29.9757 19.4503 30.4006 19.5098 30.9844C19.5692 31.5681 19.1442 32.0899 18.5605 32.1494C18.0469 32.2018 17.5258 32.2285 16.999 32.2285C8.58819 32.2285 1.76953 25.4099 1.76953 16.999C1.76953 8.58819 8.58819 1.76953 16.999 1.76953ZM23.4932 20.1914C23.8275 20.2127 24.1554 20.3161 24.4434 20.4297C25.0017 20.6499 25.7153 21.0361 26.5508 21.4873C26.572 21.4988 26.5938 21.5099 26.6152 21.5215L28.1934 22.374C28.2197 22.3882 28.2463 22.4019 28.2725 22.416C29.3642 23.0055 30.2936 23.508 30.9394 23.999C31.6172 24.5144 32.2284 25.2013 32.2285 26.208C32.2285 27.2148 31.6173 27.9016 30.9394 28.417C30.2936 28.9081 29.3642 29.4105 28.2725 30C28.2463 30.0141 28.2197 30.0288 28.1934 30.043L26.5508 30.9297C25.7153 31.3809 25.0017 31.7661 24.4434 31.9863C24.1553 32.0999 23.8276 32.2033 23.4932 32.2246C23.1329 32.2475 22.7083 32.1767 22.3398 31.876C21.7505 31.3947 21.5854 30.7326 21.6055 30.1631C21.6243 29.6284 21.8025 29.1047 21.9863 28.6797C22.176 28.2411 22.4103 27.82 22.6094 27.4795C22.69 27.3415 22.7602 27.2248 22.8203 27.124C22.9247 26.949 23 26.8224 23.0527 26.7197C23.2263 26.3817 23.2384 26.258 23.2383 26.2061C23.2381 26.1532 23.2248 26.0314 23.0527 25.6963C23.0001 25.5937 22.9246 25.4677 22.8203 25.293C22.7602 25.1921 22.6901 25.0746 22.6094 24.9365C22.4104 24.5961 22.176 24.1756 21.9863 23.7373C21.8025 23.3123 21.6243 22.7876 21.6055 22.2529C21.5855 21.6835 21.7506 21.0221 22.3398 20.541C22.7084 20.2401 23.1328 20.1685 23.4932 20.1914ZM23.7773 22.4531C23.8105 22.5746 23.8622 22.7218 23.9365 22.8936C24.0742 23.2119 24.2571 23.5439 24.4443 23.8643C24.4921 23.9459 24.5442 24.0329 24.5967 24.1211C24.7262 24.3385 24.8595 24.5624 24.9434 24.7256C25.171 25.1689 25.3615 25.6482 25.3633 26.1992C25.365 26.7513 25.1769 27.2356 24.9434 27.6904C24.9014 27.7721 24.8471 27.869 24.7871 27.9727L24.4443 28.5527C24.2571 28.8731 24.0742 29.2051 23.9365 29.5234C23.8623 29.6951 23.8105 29.8414 23.7773 29.9629C24.1939 29.7854 24.7672 29.4781 25.6055 29.0254L27.1836 28.1728C28.3759 27.529 29.1556 27.104 29.6533 26.7256C30.1133 26.3759 30.1051 26.2356 30.1035 26.2109V26.2061C30.1051 26.1819 30.1143 26.0409 29.6533 25.6904C29.1556 25.312 28.3757 24.8879 27.1836 24.2441L25.6055 23.3916C24.7671 22.9388 24.1939 22.6306 23.7773 22.4531ZM16.999 10.2695C17.5857 10.2695 18.0613 10.7454 18.0615 11.332V16.5586L19.875 18.373C20.2899 18.788 20.2899 19.4601 19.875 19.875C19.4601 20.2899 18.788 20.2899 18.373 19.875L16.248 17.75C16.0488 17.5507 15.9365 17.2808 15.9365 16.999L15.9365 11.332C15.9367 10.7454 16.4123 10.2695 16.999 10.2695Z" fill="#00276C"/>
<path d="M21.5 19.5L34 22V33H21L21.5 19.5Z" fill="#F2F2F7"/>
<path fill-rule="evenodd" clip-rule="evenodd" d="M26.9474 21.2994C26.9686 21.3109 26.99 21.3224 27.0114 21.334L28.59 22.1865C28.6163 22.2007 28.6426 22.2148 28.6687 22.229C29.7605 22.8185 30.6903 23.3205 31.3362 23.8116C32.014 24.327 32.6249 25.0139 32.6249 26.0207C32.6249 27.0276 32.014 27.7145 31.3362 28.2299C30.6903 28.721 29.7605 29.223 28.6687 29.8125C28.6426 29.8266 28.6163 29.8408 28.59 29.855L26.9474 30.7421C26.1119 31.1933 25.3984 31.5787 24.84 31.7989C24.552 31.9125 24.2245 32.0162 23.89 32.0375C23.5295 32.0605 23.1047 31.9893 22.736 31.6882C22.1466 31.207 21.9815 30.5451 22.0016 29.9756C22.0204 29.4409 22.1985 28.9172 22.3824 28.4921C22.5721 28.0535 22.8072 27.633 23.0063 27.2924C23.087 27.1544 23.1568 27.0373 23.217 26.9364C23.3214 26.7614 23.3967 26.6351 23.4494 26.5324C23.623 26.1943 23.6348 26.0705 23.6347 26.0186C23.6345 25.9657 23.6215 25.8443 23.4494 25.509C23.3967 25.4064 23.3214 25.2801 23.2169 25.105C23.1568 25.0042 23.087 24.8871 23.0063 24.7491C22.8072 24.4085 22.5721 23.988 22.3824 23.5493C22.1985 23.1243 22.0204 22.6006 22.0016 22.0659C21.9815 21.4964 22.1466 20.8345 22.736 20.3533C23.1047 20.0522 23.5295 19.981 23.89 20.004C24.2245 20.0253 24.552 20.129 24.84 20.2426C25.3984 20.4628 26.1119 20.8482 26.9474 21.2994ZM24.1737 22.266C24.2069 22.3875 24.2585 22.534 24.3327 22.7057C24.4705 23.0242 24.6535 23.3562 24.8408 23.6766C24.8886 23.7584 24.9406 23.8456 24.9932 23.9339C25.1227 24.1515 25.256 24.3753 25.3398 24.5385C25.5675 24.9819 25.758 25.4609 25.7597 26.0121C25.7614 26.5643 25.5733 27.0481 25.3398 27.503C25.256 27.6662 25.1227 27.89 24.9931 28.1076C24.9406 28.1958 24.8886 28.2831 24.8408 28.3649C24.6535 28.6853 24.4705 29.0173 24.3327 29.3357C24.2585 29.5075 24.2069 29.654 24.1737 29.7755C24.5903 29.5981 25.1633 29.2905 26.0017 28.8377L27.5803 27.9852C28.7726 27.3413 29.5523 26.9168 30.05 26.5383C30.511 26.1878 30.5017 26.0474 30.5001 26.0233C30.5 26.0222 30.4999 26.0214 30.4999 26.0207C30.4999 26.0201 30.5 26.0193 30.5001 26.0182C30.5017 25.9941 30.511 25.8537 30.05 25.5032C29.5523 25.1247 28.7726 24.7001 27.5803 24.0563L26.0017 23.2038C25.1633 22.751 24.5903 22.4434 24.1737 22.266Z" fill="#F54C67"/>
</svg>
