<svg width="34" height="34" viewBox="0 0 34 34" fill="none" xmlns="http://www.w3.org/2000/svg">
<path fill-rule="evenodd" clip-rule="evenodd" d="M7.76947 2.06323C8.14025 2.01068 10.7964 1.65846 14.204 1.80151C14.7904 1.82577 15.2447 2.32157 15.2206 2.90796C15.1964 3.49436 14.702 3.94864 14.1142 3.92456C10.7335 3.78319 8.07681 4.16692 8.03998 4.1726C8.0146 4.17683 7.98766 4.17997 7.96087 4.18139C6.11354 4.31456 3.91009 5.40967 3.91009 9.86792C3.91009 11.7973 3.90555 13.8824 3.9013 15.8982C3.89422 19.7174 3.88601 23.3245 3.91009 25.1238C3.91009 26.097 4.52932 29.7191 7.55951 29.8962C11.9044 30.1484 19.7315 30.2056 23.3115 29.8982C23.3212 29.8982 23.331 29.8967 23.3408 29.8953C23.3733 29.8938 26.5867 29.6742 26.955 26.5037C27.3247 23.3233 27.2989 21.0027 27.289 20.1287C27.289 20.014 27.287 19.9232 27.287 19.8552C27.2871 19.2688 27.7631 18.7927 28.3495 18.7927C28.9358 18.7929 29.412 19.2689 29.412 19.8552C29.412 19.9175 29.4112 20.001 29.414 20.1042C29.4239 21.0151 29.4531 23.4353 29.0663 26.7488C28.6102 30.6772 25.221 31.9096 23.4785 32.0144C21.7303 32.1631 19.0075 32.2283 16.1601 32.2283L16.162 32.2312C13.0312 32.2312 9.7466 32.1519 7.43744 32.0173C5.50808 31.9039 3.93976 30.9081 2.90423 29.1345C2.08118 27.7235 1.78705 26.1451 1.78705 25.1365C1.76438 23.3359 1.77117 19.7209 1.77826 15.8933C1.78251 13.8788 1.78705 11.794 1.78705 9.86596C1.78723 3.26187 5.93776 2.20631 7.76947 2.06323ZM21.2216 23.0447C21.8081 23.0447 22.2841 23.5207 22.2841 24.1072C22.284 24.6935 21.808 25.1697 21.2216 25.1697H9.88861C9.30224 25.1696 8.82625 24.6935 8.82611 24.1072C8.82611 23.5207 9.30215 23.0447 9.88861 23.0447H21.2216ZM15.5556 17.3777C16.142 17.3778 16.6181 17.8538 16.6181 18.4402C16.6181 19.0266 16.142 19.5025 15.5556 19.5027H9.88861C9.30215 19.5026 8.82611 19.0267 8.82611 18.4402C8.82614 17.8537 9.30217 17.3777 9.88861 17.3777H15.5556ZM24.0771 1.79565C28.572 1.7959 32.2294 5.44906 32.2294 9.94116C32.2293 14.4332 28.5719 18.0864 24.0771 18.0867C19.582 18.0867 15.9238 14.4333 15.9238 9.94116C15.9238 5.44891 19.582 1.79565 24.0771 1.79565ZM24.0771 3.92065C20.7536 3.92065 18.0488 6.62191 18.0488 9.94116C18.0488 13.2603 20.7536 15.9617 24.0771 15.9617C27.4003 15.9614 30.1043 13.2602 30.1044 9.94116C30.1044 6.62206 27.4004 3.9209 24.0771 3.92065ZM26.5341 6.81323C27.0866 6.61779 27.6941 6.90724 27.8896 7.45971C28.0849 8.01208 27.7964 8.61965 27.2441 8.81518C26.04 9.24156 24.3299 11.383 23.5351 12.6326C23.3397 12.9399 23.0011 13.1256 22.6386 13.1257V13.1277H22.5829C22.2005 13.1078 21.8574 12.8836 21.6874 12.5408C21.0772 11.3189 20.4827 10.704 20.4697 10.6921C20.0546 10.2771 20.0546 9.60429 20.4697 9.1892C20.8848 8.77421 21.5575 8.77415 21.9726 9.1892C22.024 9.24062 22.3224 9.54839 22.7187 10.116C23.6409 8.92171 25.0849 7.32748 26.5341 6.81323Z" fill="#00276C"/>
<path d="M17.0676 1H33.5V18L17.5 18.5L14.5 10.2286L17.0676 1Z" fill="#F2F2F7"/>
<path d="M23.7145 12.3322C23.6961 12.3322 23.6778 12.3322 23.6593 12.3322C23.2768 12.3124 22.934 12.0886 22.764 11.7457C22.1505 10.5175 21.5528 9.90264 21.5457 9.89697C21.1306 9.48189 21.1306 8.80899 21.5457 8.3939C21.9608 7.97882 22.6337 7.97882 23.0488 8.3939C23.0998 8.4449 23.3987 8.75229 23.7953 9.32038C24.7176 8.12613 26.1611 6.5324 27.6104 6.01815C28.1629 5.82265 28.7707 6.11163 28.9662 6.66413C29.1617 7.21663 28.8727 7.82439 28.3202 8.01989C27.116 8.4463 25.4061 10.5883 24.6113 11.8378C24.4158 12.1452 24.0772 12.3308 23.7145 12.3308V12.3322Z" fill="#F54C67"/>
<path d="M25.153 17.2917C20.6579 17.2917 17 13.6381 17 9.14583C17 4.65358 20.6579 1 25.153 1C29.648 1 33.3058 4.65358 33.3058 9.14583C33.3058 13.6381 29.648 17.2917 25.153 17.2917ZM25.153 3.125C21.8295 3.125 19.125 5.82658 19.125 9.14583C19.125 12.4651 21.8295 15.1667 25.153 15.1667C28.4765 15.1667 31.1808 12.4651 31.1808 9.14583C31.1808 5.82658 28.4765 3.125 25.153 3.125Z" fill="#F54C67"/>
</svg>
