<svg width="48" height="48" viewBox="0 0 48 48" fill="none" xmlns="http://www.w3.org/2000/svg">
<rect width="48" height="48" rx="24" fill="#FEE6E6"/>
<path fill-rule="evenodd" clip-rule="evenodd" d="M15.2143 15.2153C15.556 14.8736 16.11 14.8736 16.4517 15.2153L23.9997 22.7632L31.5476 15.2153C31.8893 14.8736 32.4433 14.8736 32.7851 15.2153C33.1268 15.557 33.1268 16.111 32.7851 16.4527L25.2371 24.0007L32.7851 31.5486C33.1268 31.8903 33.1268 32.4443 32.7851 32.786C32.4433 33.1277 31.8893 33.1277 31.5476 32.786L23.9997 25.2381L16.4517 32.786C16.11 33.1277 15.556 33.1277 15.2143 32.786C14.8726 32.4443 14.8726 31.8903 15.2143 31.5486L22.7622 24.0007L15.2143 16.4527C14.8726 16.111 14.8726 15.557 15.2143 15.2153Z" fill="#F70909"/>
</svg>
