<svg width="40" height="40" viewBox="0 0 40 40" fill="none" xmlns="http://www.w3.org/2000/svg">
<rect x="0.5" y="0.5" width="39" height="39" rx="19.5" fill="white"/>
<rect x="0.5" y="0.5" width="39" height="39" rx="19.5" stroke="#E9EBF8"/>
<path fill-rule="evenodd" clip-rule="evenodd" d="M19.9998 30.75C21.1912 30.7499 22.0351 30.209 22.7673 29.7393C22.881 29.6664 22.9922 29.5945 23.1013 29.5273C23.9255 29.0202 24.9009 28.5274 26.6658 28.5273C27.0099 28.5273 27.3108 28.2938 27.3943 27.96C27.6684 26.8635 27.9077 26.347 28.238 26.0166C28.5684 25.6862 29.0847 25.446 30.1814 25.1719C30.4927 25.094 30.72 24.8266 30.7468 24.5068C30.7549 24.41 30.7418 24.3157 30.7146 24.2266C30.8213 23.891 30.6789 23.5165 30.3582 23.3418C28.4727 22.3147 27.8354 21.4657 27.7585 20.7461C27.6786 19.9959 28.1541 18.9913 29.5818 17.5225C29.8702 17.2254 29.8631 16.7505 29.5662 16.4619C29.2691 16.1735 28.7942 16.1806 28.5056 16.4775C27.5125 17.4993 26.7489 18.5083 26.4226 19.5254C26.2097 18.4544 26.1736 17.1382 26.1736 15.4248C26.1736 12.0148 23.4097 9.25011 19.9998 9.25C16.5897 9.25 13.825 12.0148 13.825 15.4248C13.8249 17.1378 13.7887 18.4535 13.5759 19.5244C13.2494 18.5076 12.4858 17.499 11.4929 16.4775C11.2042 16.1805 10.7294 16.1732 10.4324 16.4619C10.1354 16.7506 10.1291 17.2254 10.4177 17.5225C11.8454 18.9913 12.3209 19.9959 12.241 20.7461C12.1641 21.4657 11.5258 22.3147 9.64038 23.3418C9.32002 23.5166 9.17736 23.8912 9.28394 24.2266C9.2568 24.3156 9.24364 24.4101 9.25171 24.5068C9.27856 24.8266 9.50681 25.094 9.81812 25.1719C10.9144 25.446 11.4302 25.6863 11.7605 26.0166C12.0909 26.347 12.3311 26.8633 12.6052 27.96C12.6888 28.2937 12.9888 28.5273 13.3328 28.5273C15.0981 28.5273 16.0739 29.0201 16.8982 29.5273C17.0073 29.5945 17.1186 29.6664 17.2322 29.7393C17.9644 30.209 18.8084 30.75 19.9998 30.75ZM19.9998 29.25C19.2745 29.25 18.8207 28.9639 18.0798 28.4971C17.9568 28.4196 17.8257 28.337 17.6843 28.25C16.796 27.7033 15.69 27.1448 13.9128 27.0439C13.6627 26.1807 13.3546 25.4888 12.822 24.9561C12.5556 24.6896 12.2487 24.4796 11.9011 24.3047C13.23 23.4831 14.0882 22.5189 14.6052 21.2949C15.276 19.7068 15.3249 17.7682 15.325 15.4248C15.325 12.8432 17.4181 10.75 19.9998 10.75C22.5813 10.7501 24.6736 12.8432 24.6736 15.4248C24.6736 17.7682 24.7235 19.7068 25.3943 21.2949C25.9113 22.5188 26.7686 23.4832 28.0974 24.3047C27.75 24.4796 27.4438 24.6898 27.1775 24.9561C26.6448 25.4888 26.3369 26.1806 26.0867 27.0439C24.3096 27.1448 23.2035 27.7033 22.3152 28.25C22.1739 28.337 22.0426 28.4196 21.9197 28.4971C21.1788 28.9639 20.725 29.25 19.9998 29.25Z" fill="black"/>
</svg>
