<svg width="40" height="40" viewBox="0 0 40 40" fill="none" xmlns="http://www.w3.org/2000/svg">
<rect x="0.5" y="0.5" width="39" height="39" rx="19.5" fill="white"/>
<rect x="0.5" y="0.5" width="39" height="39" rx="19.5" stroke="#E9EBF8"/>
<path fill-rule="evenodd" clip-rule="evenodd" d="M12.5449 16.75C12.9777 16.7499 13.3745 16.7496 13.6973 16.793C14.0527 16.8408 14.4283 16.9537 14.7373 17.2627C15.0463 17.5717 15.1592 17.9473 15.207 18.3027C15.2504 18.6255 15.2501 19.0223 15.25 19.4551V28.0449C15.2501 28.4777 15.2504 28.8745 15.207 29.1973C15.1592 29.5527 15.0463 29.9283 14.7373 30.2373C14.4283 30.5463 14.0527 30.6592 13.6973 30.707C13.3745 30.7504 12.9777 30.75 12.5449 30.75H11.9551C11.5223 30.75 11.1255 30.7504 10.8027 30.707C10.4473 30.6592 10.0717 30.5463 9.7627 30.2373C9.45368 29.9283 9.34077 29.5527 9.29297 29.1973C9.24958 28.8745 9.24995 28.4777 9.25 28.0449V19.4551C9.24995 19.0223 9.24958 18.6255 9.29297 18.3027C9.34077 17.9473 9.45368 17.5717 9.7627 17.2627C10.0717 16.9537 10.4473 16.8408 10.8027 16.793C11.1255 16.7496 11.5223 16.7499 11.9551 16.75H12.5449ZM25.2969 16.75C27.992 16.7501 30.7499 19.0444 30.75 22L30.749 27.5459C30.749 27.9783 30.7485 28.3747 30.7051 28.6973C30.6572 29.0527 30.5444 29.4284 30.2354 29.7373C29.9264 30.0462 29.5507 30.1593 29.1953 30.207C28.8728 30.2503 28.4763 30.25 28.044 30.25H27.4551C27.0223 30.25 26.6255 30.2504 26.3027 30.207C25.9473 30.1592 25.5717 30.0463 25.2627 29.7373C24.9537 29.4283 24.8408 29.0527 24.793 28.6973C24.7496 28.3745 24.75 27.9777 24.75 27.5449V23C24.7499 22.5426 24.4115 22.25 24.0879 22.25C23.5707 22.25 23.2927 22.4484 23.1016 22.7656C22.8769 23.1386 22.75 23.7288 22.75 24.5V28.0449C22.7501 28.4777 22.7504 28.8745 22.707 29.1973C22.6592 29.5527 22.5463 29.9283 22.2373 30.2373C21.9283 30.5463 21.5527 30.6592 21.1973 30.707C20.8745 30.7504 20.4777 30.75 20.0449 30.75H19.4551C19.0223 30.75 18.6255 30.7504 18.3027 30.707C17.9473 30.6592 17.5717 30.5463 17.2627 30.2373C16.9537 29.9283 16.8408 29.5527 16.793 29.1973C16.7496 28.8745 16.75 28.4777 16.75 28.0449V19.4551C16.75 19.0223 16.7496 18.6255 16.793 18.3027C16.8408 17.9473 16.9537 17.5717 17.2627 17.2627C17.5717 16.9537 17.9473 16.8408 18.3027 16.793C18.6255 16.7496 19.0223 16.7499 19.4551 16.75C19.7447 16.75 20.9114 16.7502 21.1328 16.7705C21.3721 16.7925 21.6328 16.8424 21.8838 16.9893C22.143 17.1409 22.3591 17.357 22.5107 17.6162L22.5225 17.6367C23.3122 17.0792 24.2657 16.75 25.2969 16.75ZM12 18.25C11.5076 18.25 11.2136 18.252 11.0029 18.2803C10.9064 18.2933 10.8577 18.3084 10.8359 18.3174C10.831 18.3194 10.8271 18.3213 10.8252 18.3223L10.8232 18.3232L10.8223 18.3252C10.8213 18.3271 10.8194 18.331 10.8174 18.3359C10.8084 18.3577 10.7933 18.4064 10.7803 18.5029C10.752 18.7136 10.75 19.0076 10.75 19.5V28C10.75 28.4924 10.752 28.7864 10.7803 28.9971C10.7933 29.0936 10.8084 29.1423 10.8174 29.1641C10.8194 29.1691 10.8213 29.1729 10.8223 29.1748L10.8232 29.1768L10.8252 29.1777C10.8271 29.1787 10.831 29.1806 10.8359 29.1826C10.8577 29.1916 10.9064 29.2067 11.0029 29.2197C11.2136 29.248 11.5076 29.25 12 29.25H12.5C12.9924 29.25 13.2864 29.248 13.4971 29.2197C13.5936 29.2067 13.6423 29.1916 13.6641 29.1826C13.6691 29.1806 13.6729 29.1787 13.6748 29.1777L13.6768 29.1768L13.6777 29.1748C13.6787 29.1729 13.6806 29.1691 13.6826 29.1641C13.6916 29.1423 13.7067 29.0936 13.7197 28.9971C13.748 28.7864 13.75 28.4924 13.75 28V19.5C13.75 19.0076 13.748 18.7136 13.7197 18.5029C13.7067 18.4064 13.6916 18.3577 13.6826 18.3359C13.6806 18.331 13.6787 18.3271 13.6777 18.3252L13.6768 18.3232L13.6748 18.3223C13.6729 18.3213 13.6691 18.3194 13.6641 18.3174C13.6423 18.3084 13.5936 18.2933 13.4971 18.2803C13.2864 18.252 12.9924 18.25 12.5 18.25H12ZM19.5 18.25C19.0076 18.25 18.7136 18.252 18.5029 18.2803C18.4353 18.2776 18.2961 18.3184 18.2803 18.5029C18.252 18.7136 18.25 19.0076 18.25 19.5V28C18.25 28.4924 18.252 28.7864 18.2803 28.9971C18.2923 29.119 18.4337 29.1963 18.5029 29.2197C18.7136 29.248 19.0076 29.25 19.5 29.25H20C20.4924 29.25 20.7864 29.248 20.9971 29.2197C21.0659 29.2024 21.2067 29.1336 21.2197 28.9971C21.248 28.7864 21.25 28.4924 21.25 28V24.5C21.25 23.6146 21.3873 22.7049 21.8164 21.9922C22.2793 21.2237 23.0454 20.75 24.0879 20.75C25.324 20.75 26.2499 21.8007 26.25 23V27.5C26.25 27.9924 26.252 28.2864 26.2803 28.4971C26.2803 28.6551 26.3756 28.6824 26.4502 28.7031C26.4698 28.7086 26.4884 28.7128 26.5029 28.7197C26.7136 28.748 27.0076 28.75 27.5 28.75H27.999C28.4914 28.75 28.7855 28.748 28.9961 28.7197C29.0656 28.6938 29.2071 28.6132 29.2188 28.4971C29.2471 28.2864 29.2489 27.9921 29.249 27.5L29.25 22C29.2498 19.9854 27.2808 18.2501 25.2969 18.25C24.2194 18.25 23.244 18.777 22.5967 19.6279C22.4019 19.884 22.0657 19.9874 21.7607 19.8848C21.4557 19.7819 21.25 19.4957 21.25 19.1738C21.25 18.8449 21.2496 18.6485 21.2363 18.5039C21.2278 18.3532 21.0729 18.2809 20.9961 18.2637C20.8515 18.2504 20.6551 18.25 20.3262 18.25H19.5ZM12.25 9.25C13.9069 9.25 15.25 10.5931 15.25 12.25C15.25 13.9069 13.9069 15.25 12.25 15.25C10.5932 15.25 9.25 13.9069 9.25 12.25C9.25 10.5931 10.5932 9.25 12.25 9.25ZM12.25 10.75C11.4216 10.75 10.75 11.4216 10.75 12.25C10.75 13.0784 11.4216 13.75 12.25 13.75C13.0784 13.75 13.75 13.0784 13.75 12.25C13.75 11.4216 13.0784 10.75 12.25 10.75Z" fill="black"/>
</svg>
