<svg width="40" height="40" viewBox="0 0 40 40" fill="none" xmlns="http://www.w3.org/2000/svg">
<rect x="0.5" y="0.5" width="39" height="39" rx="19.5" fill="white"/>
<rect x="0.5" y="0.5" width="39" height="39" rx="19.5" stroke="#E9EBF8"/>
<path fill-rule="evenodd" clip-rule="evenodd" d="M15.7955 15.5556C15.7955 12.0302 18.8211 9.25 22.4545 9.25L25.8182 9.25C26.0778 9.25 26.3347 9.26185 26.567 9.30984C26.8054 9.35908 27.0681 9.45629 27.2895 9.66441C27.7253 10.0741 27.75 10.6781 27.75 11.1111V13.3333C27.75 13.7663 27.7253 14.3703 27.2895 14.78C27.0681 14.9882 26.8054 15.0854 26.567 15.1346C26.3347 15.1826 26.0778 15.1944 25.8182 15.1944H22.4545C22.1718 15.1944 22.0227 15.399 22.0227 15.5556V17.5833L24.4332 17.5833C24.7659 17.5833 25.0836 17.5998 25.3588 17.6611C25.6337 17.7223 25.9585 17.8485 26.1936 18.1415C26.4349 18.4423 26.481 18.7918 26.467 19.0803C26.4533 19.3614 26.3793 19.6647 26.2872 19.9678L25.7807 21.6344C25.6765 21.9773 25.5206 22.4057 25.1304 22.6824C24.7516 22.9511 24.2955 22.9722 23.9267 22.9722L22.0227 22.9722L22.0227 28.8889C22.0227 29.3219 21.998 29.9259 21.5622 30.3356C21.3408 30.5437 21.0782 30.6409 20.8398 30.6902C20.6074 30.7382 20.3505 30.75 20.0909 30.75L17.7273 30.75C17.4677 30.75 17.2108 30.7382 16.9784 30.6902C16.74 30.6409 16.4773 30.5437 16.256 30.3356C15.8202 29.9259 15.7955 29.3219 15.7955 28.8889L15.7955 22.9722H14.1818C13.9222 22.9722 13.6653 22.9604 13.433 22.9124C13.1946 22.8631 12.9319 22.7659 12.7105 22.5578C12.2747 22.1481 12.25 21.5441 12.25 21.1111L12.25 19.4444C12.25 19.0115 12.2747 18.4075 12.7105 17.9977C12.9319 17.7896 13.1946 17.6924 13.433 17.6432C13.6653 17.5952 13.9222 17.5833 14.1818 17.5833H15.7955V15.5556ZM22.4545 10.75C19.561 10.75 17.2955 12.9444 17.2955 15.5556L17.2955 18.3333C17.2955 18.7475 16.9597 19.0833 16.5455 19.0833H14.1818C13.9799 19.0833 13.8509 19.0927 13.7677 19.1064C13.7576 19.1752 13.75 19.2814 13.75 19.4444L13.75 21.1111C13.75 21.2742 13.7576 21.3804 13.7677 21.4492C13.8509 21.4628 13.9799 21.4722 14.1818 21.4722H16.5455C16.9597 21.4722 17.2955 21.808 17.2955 22.2222V28.8889C17.2955 29.052 17.3031 29.1581 17.3132 29.2269C17.3964 29.2406 17.5254 29.25 17.7273 29.25L20.0909 29.25C20.2928 29.25 20.4218 29.2406 20.505 29.2269C20.5151 29.1581 20.5227 29.052 20.5227 28.8889L20.5227 22.2222C20.5227 21.808 20.8585 21.4722 21.2727 21.4722L23.9267 21.4722C24.0962 21.4722 24.1937 21.4639 24.2521 21.4531C24.274 21.4093 24.3046 21.333 24.3455 21.1983L24.852 19.5316C24.9094 19.3427 24.9413 19.2073 24.9569 19.1114C24.8427 19.0943 24.6755 19.0833 24.4332 19.0833L21.2727 19.0833C20.8585 19.0833 20.5227 18.7475 20.5227 18.3333V15.5556C20.5227 14.4848 21.4319 13.6944 22.4545 13.6944H25.8182C26.0201 13.6944 26.1491 13.685 26.2323 13.6714C26.2424 13.6026 26.25 13.4964 26.25 13.3333V11.1111C26.25 10.948 26.2424 10.8419 26.2323 10.7731C26.1491 10.7594 26.0201 10.75 25.8182 10.75L22.4545 10.75Z" fill="black"/>
</svg>
