<svg width="40" height="40" viewBox="0 0 40 40" fill="none" xmlns="http://www.w3.org/2000/svg">
<rect x="0.5" y="0.5" width="39" height="39" rx="19.5" fill="white"/>
<rect x="0.5" y="0.5" width="39" height="39" rx="19.5" stroke="#E9EBF8"/>
<path d="M20.0576 30.25C22.2479 30.25 23.9683 30.2499 25.3115 30.0693C26.6882 29.8842 27.7805 29.4969 28.6387 28.6387C29.4969 27.7805 29.8842 26.6882 30.0693 25.3115C30.2499 23.9683 30.25 22.2479 30.25 20.0576V19.9424C30.25 17.7521 30.2499 16.0317 30.0693 14.6885C29.8842 13.3118 29.4969 12.2195 28.6387 11.3613C27.7805 10.5031 26.6882 10.1158 25.3115 9.93066C23.9683 9.75012 22.2479 9.74999 20.0576 9.75H19.9424C17.7521 9.74999 16.0317 9.75012 14.6885 9.93066C13.3118 10.1158 12.2195 10.5031 11.3613 11.3613C10.5031 12.2195 10.1158 13.3118 9.93066 14.6885C9.75012 16.0317 9.74999 17.7521 9.75 19.9424V20.0576C9.74999 22.2479 9.75012 23.9683 9.93066 25.3115C10.1158 26.6882 10.5031 27.7805 11.3613 28.6387C12.2195 29.4969 13.3118 29.8842 14.6885 30.0693C16.0317 30.2499 17.7521 30.25 19.9424 30.25H20.0576ZM20 28.75C17.7396 28.75 16.1196 28.7486 14.8877 28.583C13.6775 28.4203 12.9549 28.1111 12.4219 27.5781C11.8889 27.0451 11.5797 26.3225 11.417 25.1123C11.2514 23.8804 11.25 22.2604 11.25 20C11.25 17.7396 11.2514 16.1196 11.417 14.8877C11.5797 13.6775 11.8889 12.9549 12.4219 12.4219C12.9549 11.8889 13.6775 11.5797 14.8877 11.417C16.1196 11.2514 17.7396 11.25 20 11.25C22.2604 11.25 23.8804 11.2514 25.1123 11.417C26.3225 11.5797 27.0451 11.8889 27.5781 12.4219C28.1111 12.9549 28.4203 13.6775 28.583 14.8877C28.7486 16.1196 28.75 17.7396 28.75 20C28.75 22.2604 28.7486 23.8804 28.583 25.1123C28.4203 26.3225 28.1111 27.0451 27.5781 27.5781C27.0451 28.1111 26.3225 28.4203 25.1123 28.583C23.8804 28.7486 22.2604 28.75 20 28.75ZM25.5078 15.5C26.0601 15.5 26.5078 15.0523 26.5078 14.5C26.5078 13.9477 26.0601 13.5 25.5078 13.5H25.499C24.9467 13.5 24.499 13.9477 24.499 14.5C24.499 15.0523 24.9467 15.5 25.499 15.5H25.5078ZM20 25.25C22.8995 25.25 25.25 22.8995 25.25 20C25.25 17.1005 22.8995 14.75 20 14.75C17.1005 14.75 14.75 17.1005 14.75 20C14.75 22.8995 17.1005 25.25 20 25.25ZM20 23.75C17.9289 23.75 16.25 22.0711 16.25 20C16.25 17.9289 17.9289 16.25 20 16.25C22.0711 16.25 23.75 17.9289 23.75 20C23.75 22.0711 22.0711 23.75 20 23.75Z" fill="black"/>
</svg>
