<svg width="48" height="48" viewBox="0 0 48 48" fill="none" xmlns="http://www.w3.org/2000/svg">
<rect width="48" height="48" rx="24" fill="#D4F4D9"/>
<path fill-rule="evenodd" clip-rule="evenodd" d="M13.291 22.9483L13.3213 22.9513C13.3813 22.9566 13.4444 22.9621 13.5098 22.9728C13.6884 23.0008 13.9604 23.0525 14.2734 23.171C14.7907 23.3657 15.051 23.9432 14.8564 24.4591C14.6618 24.9763 14.0842 25.2364 13.5684 25.0421C13.427 24.9888 13.2987 24.9647 13.1934 24.9474C13.1787 24.946 13.164 24.9448 13.1494 24.9435C13.1214 24.9408 13.0865 24.9381 13.0479 24.9327H12.9316C12.2346 24.9329 11.6672 25.5244 11.667 26.2521C11.667 26.9174 12.1189 27.4727 12.7402 27.5714C12.88 27.5941 13.0133 27.6456 13.1318 27.7228C13.1865 27.7548 13.2667 27.8031 13.3613 27.8751C13.8053 28.1924 14.6935 29.0135 15.8027 31.004C16.0281 31.4107 16.4308 31.6562 16.8828 31.6642C17.1828 31.6708 17.4632 31.5659 17.6885 31.3673C18.1031 31.0021 18.7347 31.0435 19.0986 31.4581C19.4625 31.8728 19.4224 32.5043 19.0078 32.8683C18.4225 33.3829 17.6826 33.6642 16.916 33.6642L16.9189 33.6661H16.8428C15.6909 33.6475 14.6187 32.9992 14.0547 31.9767C13.0494 30.1727 12.3439 29.607 12.1973 29.503C10.7187 29.1577 9.66712 27.8272 9.66699 26.254C9.66699 24.4235 11.1318 22.9339 12.9316 22.9337H13.1201C13.1774 22.9337 13.2351 22.939 13.291 22.9483ZM33.9795 14.5441C34.7847 14.2361 35.6556 14.2643 36.4355 14.6241C37.2328 14.9907 37.8386 15.6573 38.1387 16.5011C38.9319 18.7314 37.122 20.0027 36.4404 20.4816C36.2378 20.6229 36.025 20.7658 35.8037 20.9151C35.0065 21.4511 34.1022 22.0578 33.165 22.9483C32.0718 23.9963 30.8921 25.3433 29.7549 26.8419C28.3589 28.6605 27.1996 30.367 26.209 32.0616C25.625 33.0548 24.5733 33.6641 23.4521 33.6642L23.4502 33.6651H23.3984C22.2572 33.6464 21.2 33.0039 20.6387 31.9894C19.7334 30.3309 19.0562 29.7069 18.7988 29.5108C18.6135 29.3789 18.4147 29.2656 18.2041 29.1456C17.4148 28.6963 16.3331 28.0803 16.333 26.3058C16.333 24.5312 17.7785 22.9993 19.5557 22.9991H19.6016C20.5853 23.0445 21.5692 23.4161 22.5264 24.1066C22.769 24.2839 23.012 24.4827 23.252 24.7013C23.7279 24.0293 24.2095 23.3757 24.6895 22.7491C26.0587 20.9506 27.4364 19.3856 28.7803 18.1017C30.6188 16.3485 32.3183 15.1854 33.9795 14.5441ZM35.5986 16.4415C35.3121 16.3096 34.9922 16.299 34.6963 16.4122C33.307 16.9482 31.7801 18.0027 30.1602 19.548C28.8922 20.7586 27.5866 22.2454 26.2773 23.964C25.5827 24.8693 24.8876 25.8322 24.209 26.8282C24.0344 27.084 23.7521 27.244 23.4443 27.2628C23.1363 27.2801 22.8345 27.1559 22.6318 26.9239C22.2053 26.4374 21.7741 26.035 21.3516 25.7257C20.729 25.2765 20.1174 25.0305 19.5361 24.9972L19.5342 24.9991C18.8704 25.0114 18.333 25.5926 18.333 26.3058C18.333 26.8976 18.4841 27.0034 19.1934 27.4073C19.4319 27.5433 19.7011 27.6965 19.9756 27.8937C19.9808 27.8976 19.9879 27.9014 19.9932 27.9054C20.5318 28.3107 21.3856 29.1802 22.3936 31.0255C22.6069 31.4108 23.0056 31.6575 23.4336 31.6642C23.8522 31.6694 24.2578 31.4361 24.4844 31.0509C25.515 29.2857 26.7202 27.5112 28.1641 25.63C29.3774 24.0313 30.5975 22.6417 31.7842 21.503C32.8468 20.4924 33.8681 19.8066 34.6895 19.256C34.8999 19.1148 35.1025 18.979 35.293 18.8458C36.445 18.0378 36.4149 17.6269 36.2549 17.1749C36.1362 16.8429 35.9026 16.5815 35.5986 16.4415ZM27.6465 14.3976C28.1623 14.203 28.7394 14.4629 28.9355 14.9786C29.1302 15.496 28.8705 16.0727 28.3545 16.2687C26.9186 16.8114 25.4035 17.8471 23.7236 19.4337C23.2957 19.8349 22.8349 20.3032 22.2725 20.9083C22.0751 21.1203 21.808 21.2267 21.54 21.2267L21.5391 21.2257C21.2952 21.2257 21.0507 21.1366 20.8574 20.9581C20.4534 20.5821 20.4306 19.9481 20.8066 19.5441C21.4011 18.9056 21.8917 18.4072 22.3516 17.9767C24.2249 16.2074 25.9585 15.0349 27.6465 14.3976Z" fill="#167325"/>
</svg>
